<svg width="1500" height="500" viewBox="0 0 1500 500" fill="none" xmlns="http://www.w3.org/2000/svg">
<g clip-path="url(#clip0_0:3)">
<rect width="1500" height="500" fill="white"/>
<g clip-path="url(#clip1_0:3)">
<path d="M1520 490.7C1520 490.7 1315 674.7 1199 490.7C1083 306.7 1341 291.7 1520 347.7C1699 403.7 1520 490.7 1520 490.7Z" fill="url(#paint0_linear_0:3)"/>
</g>
<g clip-path="url(#clip2_0:3)">
<path d="M-28.3156 171.854C-28.3156 171.854 6.01502 -75.2362 159.705 88.7631C313.394 252.762 169.265 335.363 38.3228 322.645C-92.6196 309.928 -28.3156 171.854 -28.3156 171.854Z" fill="url(#paint1_linear_0:3)"/>
</g>
<path d="M439.19 140.9C439.19 136.99 438.653 134.115 437.58 132.275C436.507 130.358 434.36 129.4 431.14 129.4H428.84V127.1H439.19C442.027 127.1 444.135 127.483 445.515 128.25C446.972 128.94 448.007 130.243 448.62 132.16C449.233 134.077 449.54 136.99 449.54 140.9V161.6H484.04V127.1H494.39V189.2C494.39 193.11 494.927 196.023 496 197.94C497.073 199.78 499.22 200.7 502.44 200.7H504.74V203H494.39C491.553 203 489.407 202.655 487.95 201.965C486.57 201.198 485.573 199.857 484.96 197.94C484.347 196.023 484.04 193.11 484.04 189.2V166.2H449.54V203H439.19V140.9ZM522.684 142.05C520.92 142.05 519.387 141.322 518.084 139.865C516.857 138.408 516.244 136.683 516.244 134.69C516.244 133.08 516.704 131.815 517.624 130.895C518.62 129.975 519.924 129.515 521.534 129.515C523.297 129.515 524.792 130.243 526.019 131.7C527.322 133.157 527.974 134.882 527.974 136.875C527.974 138.485 527.475 139.75 526.479 140.67C525.559 141.59 524.294 142.05 522.684 142.05ZM518.314 162.75C518.314 158.84 517.777 155.965 516.704 154.125C515.63 152.208 513.484 151.25 510.264 151.25H507.964V148.95H518.314C521.15 148.95 523.259 149.333 524.639 150.1C526.095 150.79 527.13 152.093 527.744 154.01C528.357 155.927 528.664 158.84 528.664 162.75V203H518.314V162.75ZM550.064 204.61C548.378 204.61 546.921 203.997 545.694 202.77C544.468 201.543 543.854 200.048 543.854 198.285C543.854 196.598 544.468 195.18 545.694 194.03C546.921 192.803 548.378 192.19 550.064 192.19C551.751 192.19 553.208 192.803 554.434 194.03C555.661 195.18 556.274 196.598 556.274 198.285C556.274 200.048 555.661 201.543 554.434 202.77C553.208 203.997 551.751 204.61 550.064 204.61ZM544.659 127.1H555.469L553.399 185.175H546.729L544.659 127.1ZM606.688 142.05C604.924 142.05 603.391 141.322 602.088 139.865C600.861 138.408 600.248 136.683 600.248 134.69C600.248 133.08 600.708 131.815 601.628 130.895C602.624 129.975 603.928 129.515 605.538 129.515C607.301 129.515 608.796 130.243 610.023 131.7C611.326 133.157 611.978 134.882 611.978 136.875C611.978 138.485 611.479 139.75 610.483 140.67C609.563 141.59 608.298 142.05 606.688 142.05ZM602.318 162.75C602.318 158.84 601.781 155.965 600.708 154.125C599.634 152.208 597.488 151.25 594.268 151.25H591.967V148.95H602.318C605.154 148.95 607.263 149.333 608.643 150.1C610.099 150.79 611.134 152.093 611.748 154.01C612.361 155.927 612.668 158.84 612.668 162.75V203H602.318V162.75ZM627.743 152.4C630.81 150.33 633.11 148.068 634.643 145.615C636.177 143.085 636.943 140.172 636.943 136.875L633.493 138.025C631.73 138.025 630.235 137.412 629.008 136.185C627.782 134.958 627.168 133.463 627.168 131.7C627.168 129.707 627.82 128.058 629.123 126.755C630.427 125.452 632.075 124.8 634.068 124.8C636.368 124.8 638.17 125.528 639.473 126.985C640.853 128.365 641.543 130.32 641.543 132.85C641.543 142.28 637.327 149.372 628.893 154.125L627.743 152.4Z" fill="black"/>
<path d="M655.005 162.75C655.005 158.84 654.468 155.965 653.395 154.125C652.322 152.208 650.175 151.25 646.955 151.25H644.655V148.95H655.005C657.842 148.95 659.988 149.333 661.445 150.1C662.978 150.867 664.09 152.017 664.78 153.55H665.355C666.965 151.94 669.035 150.598 671.565 149.525C674.172 148.375 677.085 147.8 680.305 147.8C683.525 147.8 686.285 148.413 688.585 149.64C690.885 150.79 692.725 152.86 694.105 155.85C696.098 153.32 698.628 151.365 701.695 149.985C704.838 148.528 708.058 147.8 711.355 147.8C716.262 147.8 720.172 149.333 723.085 152.4C725.998 155.467 727.455 160.833 727.455 168.5V203H717.105V168.5C717.105 162.98 716.338 159.032 714.805 156.655C713.272 154.202 710.972 152.975 707.905 152.975C705.758 152.975 703.497 153.78 701.12 155.39C698.743 156.923 696.98 158.61 695.83 160.45C696.213 161.6 696.405 164.283 696.405 168.5V203H686.055V168.5C686.055 162.98 685.288 159.032 683.755 156.655C682.222 154.202 679.922 152.975 676.855 152.975C672.792 152.975 668.958 155.007 665.355 159.07V203H655.005V162.75ZM773.358 140.555C771.441 136.108 769.64 133.08 767.953 131.47C766.266 129.783 763.851 128.787 760.708 128.48V126.18C761.091 126.18 761.666 126.142 762.433 126.065C763.123 125.988 763.851 125.95 764.618 125.95C768.451 125.95 772.131 126.947 775.658 128.94C779.185 130.857 782.175 134.728 784.628 140.555L804.293 186.9L811.078 171.145C814.298 163.708 820.47 149.027 829.593 127.1H835.113L802.108 204.15H800.038L773.358 140.555ZM851.238 204.15C848.785 204.15 846.293 203.652 843.763 202.655C841.233 201.582 839.048 199.857 837.208 197.48C835.445 195.103 834.563 191.96 834.563 188.05C834.563 182.223 837.246 178.083 842.613 175.63C848.056 173.177 855.148 171.95 863.888 171.95H867.338C867.338 164.437 866.303 159.3 864.233 156.54C862.163 153.78 859.173 152.4 855.263 152.4C851.813 152.4 849.053 153.128 846.983 154.585C844.913 156.042 843.456 158.572 842.613 162.175H837.438C837.438 159.568 837.591 157.537 837.898 156.08C838.205 154.547 839.01 153.128 840.313 151.825C841.693 150.445 843.955 149.448 847.098 148.835C850.318 148.145 853.806 147.8 857.563 147.8C863.773 147.8 868.68 149.487 872.283 152.86C875.886 156.157 877.688 162.52 877.688 171.95V203H871.938L867.913 197.825H867.338C865.958 199.588 863.926 201.083 861.243 202.31C858.56 203.537 855.225 204.15 851.238 204.15ZM856.413 198.975C858.943 198.975 861.051 198.362 862.738 197.135C864.425 195.908 865.958 194.222 867.338 192.075V176.55H863.888C858.215 176.55 853.73 177.623 850.433 179.77C847.136 181.84 845.488 184.6 845.488 188.05C845.488 191.577 846.523 194.298 848.593 196.215C850.74 198.055 853.346 198.975 856.413 198.975ZM895.449 162.75C895.449 158.84 894.913 155.965 893.839 154.125C892.766 152.208 890.619 151.25 887.399 151.25H885.099V148.95H895.449C898.286 148.95 900.433 149.333 901.889 150.1C903.423 150.867 904.534 152.017 905.224 153.55H905.799C907.409 151.94 909.479 150.598 912.009 149.525C914.616 148.375 917.529 147.8 920.749 147.8C926.499 147.8 931.176 149.333 934.779 152.4C938.459 155.467 940.299 160.833 940.299 168.5V203H929.949V168.5C929.949 163.133 928.723 159.223 926.269 156.77C923.893 154.24 920.903 152.975 917.299 152.975C913.236 152.975 909.403 155.007 905.799 159.07V203H895.449V162.75ZM977.323 204.15C972.11 204.15 967.701 202.923 964.098 200.47C960.495 197.94 957.773 194.567 955.933 190.35C954.093 186.057 953.173 181.265 953.173 175.975C953.173 170.762 954.093 166.008 955.933 161.715C957.773 157.422 960.418 154.048 963.868 151.595C967.395 149.065 971.496 147.8 976.173 147.8C983.916 147.8 989.666 149.985 993.423 154.355C997.256 158.648 999.173 164.897 999.173 173.1L998.943 177.7H964.098C964.098 184.14 965.478 189.392 968.238 193.455C970.998 197.518 974.793 199.55 979.623 199.55C983.226 199.55 986.255 198.783 988.708 197.25C991.238 195.717 993.576 193.417 995.723 190.35L998.023 192.075C995.493 196.292 992.541 199.358 989.168 201.275C985.795 203.192 981.846 204.15 977.323 204.15ZM988.248 173.1C988.248 166.353 987.251 161.217 985.258 157.69C983.265 154.163 980.236 152.4 976.173 152.4C973.873 152.4 971.803 153.32 969.963 155.16C968.123 156.923 966.666 159.377 965.593 162.52C964.596 165.663 964.098 169.19 964.098 173.1H988.248ZM1030.49 204.15C1021.67 204.15 1015.73 202.617 1012.66 199.55C1011.36 198.247 1010.55 196.79 1010.25 195.18C1009.94 193.493 1009.79 190.925 1009.79 187.475H1012.09C1012.78 191.308 1014.42 194.298 1017.03 196.445C1019.71 198.515 1023.43 199.55 1028.19 199.55C1032.4 199.55 1035.55 198.822 1037.62 197.365C1039.76 195.908 1040.84 193.953 1040.84 191.5C1040.84 189.277 1039.99 187.36 1038.31 185.75C1036.7 184.14 1034.09 182.607 1030.49 181.15L1023.59 178.275C1018.99 176.435 1015.54 174.288 1013.24 171.835C1010.94 169.382 1009.79 166.353 1009.79 162.75C1009.79 158.073 1011.55 154.432 1015.08 151.825C1018.6 149.142 1023.16 147.8 1028.76 147.8C1037.19 147.8 1042.94 149.333 1046.01 152.4C1047.31 153.703 1048.12 155.16 1048.43 156.77C1048.73 158.38 1048.89 160.948 1048.89 164.475H1046.59C1045.97 160.642 1044.36 157.69 1041.76 155.62C1039.15 153.473 1035.58 152.4 1031.06 152.4C1027.46 152.4 1024.62 153.167 1022.55 154.7C1020.56 156.157 1019.56 158.073 1019.56 160.45C1019.56 164.437 1022.63 167.695 1028.76 170.225L1035.66 173.1C1040.87 175.247 1044.67 177.547 1047.05 180C1049.42 182.377 1050.61 185.443 1050.61 189.2C1050.61 193.877 1048.73 197.557 1044.98 200.24C1041.22 202.847 1036.39 204.15 1030.49 204.15ZM1081.81 204.15C1072.99 204.15 1067.05 202.617 1063.98 199.55C1062.68 198.247 1061.88 196.79 1061.57 195.18C1061.26 193.493 1061.11 190.925 1061.11 187.475H1063.41C1064.1 191.308 1065.75 194.298 1068.35 196.445C1071.04 198.515 1074.76 199.55 1079.51 199.55C1083.73 199.55 1086.87 198.822 1088.94 197.365C1091.09 195.908 1092.16 193.953 1092.16 191.5C1092.16 189.277 1091.32 187.36 1089.63 185.75C1088.02 184.14 1085.41 182.607 1081.81 181.15L1074.91 178.275C1070.31 176.435 1066.86 174.288 1064.56 171.835C1062.26 169.382 1061.11 166.353 1061.11 162.75C1061.11 158.073 1062.87 154.432 1066.4 151.825C1069.93 149.142 1074.49 147.8 1080.08 147.8C1088.52 147.8 1094.27 149.333 1097.33 152.4C1098.64 153.703 1099.44 155.16 1099.75 156.77C1100.06 158.38 1100.21 160.948 1100.21 164.475H1097.91C1097.3 160.642 1095.69 157.69 1093.08 155.62C1090.47 153.473 1086.91 152.4 1082.38 152.4C1078.78 152.4 1075.94 153.167 1073.87 154.7C1071.88 156.157 1070.88 158.073 1070.88 160.45C1070.88 164.437 1073.95 167.695 1080.08 170.225L1086.98 173.1C1092.2 175.247 1095.99 177.547 1098.37 180C1100.75 182.377 1101.93 185.443 1101.93 189.2C1101.93 193.877 1100.06 197.557 1096.3 200.24C1092.54 202.847 1087.71 204.15 1081.81 204.15ZM1127.96 204.15C1125.5 204.15 1123.01 203.652 1120.48 202.655C1117.95 201.582 1115.77 199.857 1113.93 197.48C1112.16 195.103 1111.28 191.96 1111.28 188.05C1111.28 182.223 1113.97 178.083 1119.33 175.63C1124.78 173.177 1131.87 171.95 1140.61 171.95H1144.06C1144.06 164.437 1143.02 159.3 1140.95 156.54C1138.88 153.78 1135.89 152.4 1131.98 152.4C1128.53 152.4 1125.77 153.128 1123.7 154.585C1121.63 156.042 1120.18 158.572 1119.33 162.175H1114.16C1114.16 159.568 1114.31 157.537 1114.62 156.08C1114.92 154.547 1115.73 153.128 1117.03 151.825C1118.41 150.445 1120.67 149.448 1123.82 148.835C1127.04 148.145 1130.53 147.8 1134.28 147.8C1140.49 147.8 1145.4 149.487 1149 152.86C1152.61 156.157 1154.41 162.52 1154.41 171.95V203H1148.66L1144.63 197.825H1144.06C1142.68 199.588 1140.65 201.083 1137.96 202.31C1135.28 203.537 1131.94 204.15 1127.96 204.15ZM1133.13 198.975C1135.66 198.975 1137.77 198.362 1139.46 197.135C1141.14 195.908 1142.68 194.222 1144.06 192.075V176.55H1140.61C1134.93 176.55 1130.45 177.623 1127.15 179.77C1123.86 181.84 1122.21 184.6 1122.21 188.05C1122.21 191.577 1123.24 194.298 1125.31 196.215C1127.46 198.055 1130.07 198.975 1133.13 198.975Z" fill="black"/>
<path d="M531.435 261H528.944V239.584H540.883V241.796H531.435V249.633H540.312V251.845H531.435V261ZM546.361 244.945V255.36C546.361 256.669 546.659 257.646 547.255 258.29C547.851 258.935 548.783 259.257 550.053 259.257C551.732 259.257 552.958 258.798 553.729 257.88C554.511 256.962 554.901 255.463 554.901 253.383V244.945H557.333V261H555.326L554.975 258.847H554.843C554.345 259.638 553.651 260.243 552.763 260.663C551.884 261.083 550.878 261.293 549.745 261.293C547.792 261.293 546.327 260.829 545.351 259.901C544.384 258.974 543.9 257.489 543.9 255.448V244.945H546.361ZM564.936 261H562.504V238.207H564.936V261ZM572.523 261H570.092V238.207H572.523V261ZM597.924 255.302C597.924 257.187 597.24 258.656 595.873 259.711C594.506 260.766 592.65 261.293 590.307 261.293C587.768 261.293 585.814 260.966 584.447 260.312V257.909C585.326 258.28 586.283 258.573 587.318 258.788C588.354 259.003 589.379 259.11 590.395 259.11C592.055 259.11 593.305 258.798 594.145 258.173C594.984 257.538 595.404 256.659 595.404 255.536C595.404 254.794 595.253 254.188 594.95 253.72C594.657 253.241 594.159 252.802 593.456 252.401C592.763 252.001 591.703 251.547 590.277 251.039C588.285 250.326 586.859 249.481 586 248.505C585.15 247.528 584.726 246.254 584.726 244.682C584.726 243.031 585.346 241.718 586.586 240.741C587.826 239.765 589.467 239.276 591.508 239.276C593.637 239.276 595.595 239.667 597.382 240.448L596.605 242.616C594.838 241.874 593.119 241.503 591.449 241.503C590.131 241.503 589.101 241.786 588.358 242.353C587.616 242.919 587.245 243.705 587.245 244.711C587.245 245.453 587.382 246.063 587.655 246.542C587.929 247.011 588.388 247.445 589.032 247.846C589.687 248.236 590.683 248.671 592.021 249.149C594.267 249.95 595.81 250.81 596.649 251.728C597.499 252.646 597.924 253.837 597.924 255.302ZM607.123 259.286C607.553 259.286 607.968 259.257 608.368 259.198C608.769 259.13 609.086 259.062 609.32 258.993V260.854C609.057 260.98 608.666 261.083 608.148 261.161C607.641 261.249 607.182 261.293 606.771 261.293C603.666 261.293 602.113 259.657 602.113 256.386V246.835H599.813V245.663L602.113 244.652L603.139 241.225H604.545V244.945H609.203V246.835H604.545V256.283C604.545 257.25 604.774 257.992 605.233 258.51C605.692 259.027 606.322 259.286 607.123 259.286ZM622.416 261L621.933 258.715H621.815C621.015 259.721 620.214 260.404 619.413 260.766C618.622 261.117 617.631 261.293 616.439 261.293C614.848 261.293 613.598 260.883 612.689 260.062C611.791 259.242 611.342 258.075 611.342 256.562C611.342 253.319 613.935 251.62 619.12 251.464L621.845 251.376V250.38C621.845 249.12 621.571 248.192 621.024 247.597C620.487 246.991 619.623 246.688 618.432 246.688C617.094 246.688 615.58 247.099 613.891 247.919L613.144 246.059C613.935 245.629 614.799 245.292 615.736 245.048C616.684 244.804 617.631 244.682 618.578 244.682C620.492 244.682 621.908 245.106 622.826 245.956C623.754 246.806 624.218 248.168 624.218 250.043V261H622.416ZM616.923 259.286C618.437 259.286 619.623 258.871 620.482 258.041C621.352 257.211 621.786 256.049 621.786 254.555V253.104L619.354 253.207C617.421 253.275 616.024 253.578 615.165 254.115C614.315 254.643 613.891 255.468 613.891 256.591C613.891 257.47 614.154 258.139 614.682 258.598C615.219 259.057 615.966 259.286 616.923 259.286ZM635.658 261.293C633.334 261.293 631.532 260.58 630.253 259.154C628.983 257.719 628.349 255.692 628.349 253.075C628.349 250.39 628.993 248.314 630.282 246.85C631.581 245.385 633.427 244.652 635.819 244.652C636.591 244.652 637.362 244.735 638.134 244.901C638.905 245.067 639.511 245.263 639.95 245.487L639.203 247.553C638.666 247.338 638.08 247.162 637.445 247.025C636.811 246.879 636.249 246.806 635.761 246.806C632.499 246.806 630.868 248.886 630.868 253.046C630.868 255.019 631.264 256.532 632.055 257.587C632.855 258.642 634.037 259.169 635.6 259.169C636.938 259.169 638.31 258.881 639.716 258.305V260.458C638.642 261.015 637.289 261.293 635.658 261.293ZM645.941 252.782C646.361 252.187 647.001 251.405 647.86 250.438L653.046 244.945H655.932L649.428 251.786L656.386 261H653.441L647.772 253.412L645.941 254.994V261H643.539V238.207H645.941V250.292C645.941 250.829 645.902 251.659 645.824 252.782H645.941ZM684.555 250.087C684.555 253.622 683.593 256.327 681.669 258.202C679.755 260.067 676.996 261 673.393 261H667.46V239.584H674.022C677.353 239.584 679.94 240.507 681.786 242.353C683.632 244.198 684.555 246.776 684.555 250.087ZM681.918 250.175C681.918 247.382 681.215 245.277 679.809 243.861C678.412 242.445 676.332 241.737 673.568 241.737H669.95V258.847H672.982C675.951 258.847 678.183 258.119 679.677 256.664C681.171 255.199 681.918 253.036 681.918 250.175ZM695.761 261.293C693.388 261.293 691.513 260.57 690.136 259.125C688.769 257.68 688.085 255.673 688.085 253.104C688.085 250.517 688.72 248.461 689.989 246.938C691.269 245.414 692.982 244.652 695.131 244.652C697.143 244.652 698.734 245.316 699.906 246.645C701.078 247.963 701.664 249.706 701.664 251.874V253.412H690.604C690.653 255.297 691.127 256.728 692.025 257.704C692.934 258.681 694.208 259.169 695.849 259.169C697.577 259.169 699.286 258.808 700.976 258.085V260.253C700.116 260.624 699.301 260.888 698.529 261.044C697.768 261.21 696.845 261.293 695.761 261.293ZM695.102 246.688C693.812 246.688 692.782 247.108 692.011 247.948C691.249 248.788 690.8 249.95 690.663 251.435H699.057C699.057 249.901 698.715 248.729 698.031 247.919C697.348 247.099 696.371 246.688 695.102 246.688ZM709.34 261L703.246 244.945H705.854L709.311 254.467C710.092 256.693 710.551 258.139 710.688 258.803H710.805C710.912 258.285 711.249 257.216 711.815 255.595C712.392 253.964 713.676 250.414 715.668 244.945H718.275L712.182 261H709.34ZM727.636 261.293C725.263 261.293 723.388 260.57 722.011 259.125C720.644 257.68 719.96 255.673 719.96 253.104C719.96 250.517 720.595 248.461 721.864 246.938C723.144 245.414 724.857 244.652 727.006 244.652C729.018 244.652 730.609 245.316 731.781 246.645C732.953 247.963 733.539 249.706 733.539 251.874V253.412H722.479C722.528 255.297 723.002 256.728 723.9 257.704C724.809 258.681 726.083 259.169 727.724 259.169C729.452 259.169 731.161 258.808 732.851 258.085V260.253C731.991 260.624 731.176 260.888 730.404 261.044C729.643 261.21 728.72 261.293 727.636 261.293ZM726.977 246.688C725.688 246.688 724.657 247.108 723.886 247.948C723.124 248.788 722.675 249.95 722.538 251.435H730.932C730.932 249.901 730.59 248.729 729.906 247.919C729.223 247.099 728.246 246.688 726.977 246.688ZM740.131 261H737.699V238.207H740.131V261ZM759.145 252.958C759.145 255.575 758.485 257.621 757.167 259.096C755.849 260.561 754.027 261.293 751.703 261.293C750.268 261.293 748.993 260.956 747.88 260.282C746.767 259.608 745.907 258.642 745.302 257.382C744.696 256.122 744.394 254.647 744.394 252.958C744.394 250.341 745.048 248.305 746.356 246.85C747.665 245.385 749.481 244.652 751.806 244.652C754.052 244.652 755.834 245.399 757.152 246.894C758.48 248.388 759.145 250.409 759.145 252.958ZM746.913 252.958C746.913 255.009 747.323 256.571 748.144 257.646C748.964 258.72 750.17 259.257 751.762 259.257C753.354 259.257 754.56 258.725 755.38 257.66C756.21 256.586 756.625 255.019 756.625 252.958C756.625 250.917 756.21 249.369 755.38 248.314C754.56 247.25 753.344 246.718 751.732 246.718C750.141 246.718 748.939 247.24 748.129 248.285C747.318 249.33 746.913 250.888 746.913 252.958ZM770.893 261.293C769.848 261.293 768.891 261.103 768.021 260.722C767.162 260.331 766.439 259.735 765.854 258.935H765.678C765.795 259.872 765.854 260.761 765.854 261.601V268.207H763.422V244.945H765.399L765.736 247.143H765.854C766.479 246.264 767.206 245.629 768.036 245.238C768.866 244.848 769.818 244.652 770.893 244.652C773.021 244.652 774.662 245.38 775.814 246.835C776.977 248.29 777.558 250.331 777.558 252.958C777.558 255.595 776.967 257.646 775.785 259.11C774.613 260.565 772.982 261.293 770.893 261.293ZM770.541 246.718C768.9 246.718 767.714 247.172 766.981 248.08C766.249 248.988 765.873 250.434 765.854 252.416V252.958C765.854 255.214 766.229 256.83 766.981 257.807C767.733 258.773 768.939 259.257 770.6 259.257C771.986 259.257 773.07 258.695 773.852 257.572C774.643 256.449 775.038 254.901 775.038 252.929C775.038 250.927 774.643 249.394 773.852 248.329C773.07 247.255 771.967 246.718 770.541 246.718ZM788.603 261.293C786.229 261.293 784.354 260.57 782.978 259.125C781.61 257.68 780.927 255.673 780.927 253.104C780.927 250.517 781.562 248.461 782.831 246.938C784.11 245.414 785.824 244.652 787.973 244.652C789.984 244.652 791.576 245.316 792.748 246.645C793.92 247.963 794.506 249.706 794.506 251.874V253.412H783.446C783.495 255.297 783.969 256.728 784.867 257.704C785.775 258.681 787.05 259.169 788.69 259.169C790.419 259.169 792.128 258.808 793.817 258.085V260.253C792.958 260.624 792.143 260.888 791.371 261.044C790.609 261.21 789.687 261.293 788.603 261.293ZM787.943 246.688C786.654 246.688 785.624 247.108 784.853 247.948C784.091 248.788 783.642 249.95 783.505 251.435H791.898C791.898 249.901 791.557 248.729 790.873 247.919C790.189 247.099 789.213 246.688 787.943 246.688ZM805.99 244.652C806.703 244.652 807.343 244.711 807.909 244.828L807.572 247.084C806.908 246.938 806.322 246.864 805.814 246.864C804.516 246.864 803.402 247.392 802.475 248.446C801.557 249.501 801.098 250.814 801.098 252.387V261H798.666V244.945H800.673L800.951 247.919H801.068C801.664 246.874 802.382 246.068 803.222 245.502C804.062 244.936 804.984 244.652 805.99 244.652ZM823.363 238.207H825.429V268.266H823.363V238.207ZM855.473 255.302C855.473 257.187 854.789 258.656 853.422 259.711C852.055 260.766 850.199 261.293 847.855 261.293C845.316 261.293 843.363 260.966 841.996 260.312V257.909C842.875 258.28 843.832 258.573 844.867 258.788C845.902 259.003 846.928 259.11 847.943 259.11C849.604 259.11 850.854 258.798 851.693 258.173C852.533 257.538 852.953 256.659 852.953 255.536C852.953 254.794 852.802 254.188 852.499 253.72C852.206 253.241 851.708 252.802 851.005 252.401C850.312 252.001 849.252 251.547 847.826 251.039C845.834 250.326 844.408 249.481 843.549 248.505C842.699 247.528 842.274 246.254 842.274 244.682C842.274 243.031 842.895 241.718 844.135 240.741C845.375 239.765 847.016 239.276 849.057 239.276C851.186 239.276 853.144 239.667 854.931 240.448L854.154 242.616C852.387 241.874 850.668 241.503 848.998 241.503C847.68 241.503 846.649 241.786 845.907 242.353C845.165 242.919 844.794 243.705 844.794 244.711C844.794 245.453 844.931 246.063 845.204 246.542C845.478 247.011 845.937 247.445 846.581 247.846C847.235 248.236 848.231 248.671 849.569 249.149C851.815 249.95 853.358 250.81 854.198 251.728C855.048 252.646 855.473 253.837 855.473 255.302ZM856.938 244.945H859.545L863.061 254.101C863.832 256.19 864.311 257.699 864.496 258.627H864.613C864.74 258.129 865.004 257.279 865.404 256.078C865.814 254.867 867.143 251.156 869.389 244.945H871.996L865.097 263.227C864.413 265.033 863.612 266.312 862.694 267.064C861.786 267.826 860.668 268.207 859.34 268.207C858.598 268.207 857.865 268.124 857.143 267.958V266.01C857.68 266.127 858.28 266.186 858.944 266.186C860.614 266.186 861.806 265.248 862.519 263.373L863.412 261.088L856.938 244.945ZM884.96 256.62C884.96 258.114 884.403 259.267 883.29 260.077C882.177 260.888 880.614 261.293 878.603 261.293C876.474 261.293 874.813 260.956 873.622 260.282V258.026C874.394 258.417 875.219 258.725 876.098 258.949C876.986 259.174 877.841 259.286 878.661 259.286C879.931 259.286 880.907 259.086 881.591 258.686C882.274 258.275 882.616 257.655 882.616 256.825C882.616 256.2 882.343 255.668 881.796 255.229C881.259 254.779 880.204 254.252 878.632 253.646C877.138 253.09 876.073 252.606 875.438 252.196C874.813 251.776 874.345 251.303 874.032 250.775C873.729 250.248 873.578 249.618 873.578 248.886C873.578 247.577 874.11 246.547 875.175 245.795C876.239 245.033 877.699 244.652 879.555 244.652C881.283 244.652 882.973 245.004 884.623 245.707L883.759 247.685C882.147 247.021 880.688 246.688 879.379 246.688C878.227 246.688 877.357 246.869 876.771 247.23C876.186 247.592 875.893 248.09 875.893 248.725C875.893 249.154 876 249.521 876.215 249.823C876.439 250.126 876.796 250.414 877.284 250.688C877.772 250.961 878.71 251.356 880.097 251.874C882.001 252.567 883.285 253.266 883.949 253.969C884.623 254.672 884.96 255.556 884.96 256.62ZM894.115 259.286C894.545 259.286 894.96 259.257 895.36 259.198C895.761 259.13 896.078 259.062 896.312 258.993V260.854C896.049 260.98 895.658 261.083 895.141 261.161C894.633 261.249 894.174 261.293 893.764 261.293C890.658 261.293 889.105 259.657 889.105 256.386V246.835H886.806V245.663L889.105 244.652L890.131 241.225H891.537V244.945H896.195V246.835H891.537V256.283C891.537 257.25 891.767 257.992 892.226 258.51C892.685 259.027 893.314 259.286 894.115 259.286ZM906.317 261.293C903.944 261.293 902.069 260.57 900.692 259.125C899.325 257.68 898.642 255.673 898.642 253.104C898.642 250.517 899.276 248.461 900.546 246.938C901.825 245.414 903.539 244.652 905.688 244.652C907.699 244.652 909.291 245.316 910.463 246.645C911.635 247.963 912.221 249.706 912.221 251.874V253.412H901.161C901.21 255.297 901.684 256.728 902.582 257.704C903.49 258.681 904.765 259.169 906.405 259.169C908.134 259.169 909.843 258.808 911.532 258.085V260.253C910.673 260.624 909.857 260.888 909.086 261.044C908.324 261.21 907.401 261.293 906.317 261.293ZM905.658 246.688C904.369 246.688 903.339 247.108 902.567 247.948C901.806 248.788 901.356 249.95 901.22 251.435H909.613C909.613 249.901 909.271 248.729 908.588 247.919C907.904 247.099 906.928 246.688 905.658 246.688ZM936.845 261V250.556C936.845 249.276 936.571 248.319 936.024 247.685C935.478 247.04 934.628 246.718 933.476 246.718C931.962 246.718 930.844 247.152 930.121 248.021C929.398 248.891 929.037 250.229 929.037 252.035V261H926.605V250.556C926.605 249.276 926.332 248.319 925.785 247.685C925.238 247.04 924.384 246.718 923.222 246.718C921.698 246.718 920.58 247.177 919.867 248.095C919.164 249.003 918.812 250.497 918.812 252.577V261H916.381V244.945H918.358L918.754 247.143H918.871C919.33 246.361 919.975 245.751 920.805 245.312C921.645 244.872 922.582 244.652 923.617 244.652C926.127 244.652 927.768 245.561 928.539 247.377H928.656C929.135 246.537 929.828 245.873 930.736 245.385C931.645 244.896 932.68 244.652 933.842 244.652C935.658 244.652 937.016 245.121 937.914 246.059C938.822 246.986 939.276 248.476 939.276 250.526V261H936.845ZM954.657 256.62C954.657 258.114 954.101 259.267 952.987 260.077C951.874 260.888 950.312 261.293 948.3 261.293C946.171 261.293 944.511 260.956 943.319 260.282V258.026C944.091 258.417 944.916 258.725 945.795 258.949C946.684 259.174 947.538 259.286 948.358 259.286C949.628 259.286 950.604 259.086 951.288 258.686C951.972 258.275 952.313 257.655 952.313 256.825C952.313 256.2 952.04 255.668 951.493 255.229C950.956 254.779 949.901 254.252 948.329 253.646C946.835 253.09 945.771 252.606 945.136 252.196C944.511 251.776 944.042 251.303 943.729 250.775C943.427 250.248 943.275 249.618 943.275 248.886C943.275 247.577 943.808 246.547 944.872 245.795C945.937 245.033 947.396 244.652 949.252 244.652C950.98 244.652 952.67 245.004 954.32 245.707L953.456 247.685C951.845 247.021 950.385 246.688 949.076 246.688C947.924 246.688 947.055 246.869 946.469 247.23C945.883 247.592 945.59 248.09 945.59 248.725C945.59 249.154 945.697 249.521 945.912 249.823C946.137 250.126 946.493 250.414 946.981 250.688C947.47 250.961 948.407 251.356 949.794 251.874C951.698 252.567 952.982 253.266 953.646 253.969C954.32 254.672 954.657 255.556 954.657 256.62ZM976.293 261L975.81 258.715H975.692C974.892 259.721 974.091 260.404 973.29 260.766C972.499 261.117 971.508 261.293 970.316 261.293C968.725 261.293 967.475 260.883 966.566 260.062C965.668 259.242 965.219 258.075 965.219 256.562C965.219 253.319 967.812 251.62 972.997 251.464L975.722 251.376V250.38C975.722 249.12 975.448 248.192 974.901 247.597C974.364 246.991 973.5 246.688 972.309 246.688C970.971 246.688 969.457 247.099 967.768 247.919L967.021 246.059C967.812 245.629 968.676 245.292 969.613 245.048C970.561 244.804 971.508 244.682 972.455 244.682C974.369 244.682 975.785 245.106 976.703 245.956C977.631 246.806 978.095 248.168 978.095 250.043V261H976.293ZM970.8 259.286C972.313 259.286 973.5 258.871 974.359 258.041C975.229 257.211 975.663 256.049 975.663 254.555V253.104L973.231 253.207C971.298 253.275 969.901 253.578 969.042 254.115C968.192 254.643 967.768 255.468 967.768 256.591C967.768 257.47 968.031 258.139 968.559 258.598C969.096 259.057 969.843 259.286 970.8 259.286ZM994.105 261V250.614C994.105 249.306 993.808 248.329 993.212 247.685C992.616 247.04 991.684 246.718 990.414 246.718C988.734 246.718 987.504 247.172 986.723 248.08C985.941 248.988 985.551 250.487 985.551 252.577V261H983.119V244.945H985.097L985.492 247.143H985.609C986.107 246.352 986.806 245.741 987.704 245.312C988.603 244.872 989.604 244.652 990.707 244.652C992.641 244.652 994.096 245.121 995.072 246.059C996.049 246.986 996.537 248.476 996.537 250.526V261H994.105ZM1011.42 261L1010.94 258.715H1010.82C1010.02 259.721 1009.22 260.404 1008.42 260.766C1007.63 261.117 1006.63 261.293 1005.44 261.293C1003.85 261.293 1002.6 260.883 1001.69 260.062C1000.79 259.242 1000.35 258.075 1000.35 256.562C1000.35 253.319 1002.94 251.62 1008.12 251.464L1010.85 251.376V250.38C1010.85 249.12 1010.58 248.192 1010.03 247.597C1009.49 246.991 1008.63 246.688 1007.44 246.688C1006.1 246.688 1004.58 247.099 1002.89 247.919L1002.15 246.059C1002.94 245.629 1003.8 245.292 1004.74 245.048C1005.69 244.804 1006.63 244.682 1007.58 244.682C1009.5 244.682 1010.91 245.106 1011.83 245.956C1012.76 246.806 1013.22 248.168 1013.22 250.043V261H1011.42ZM1005.93 259.286C1007.44 259.286 1008.63 258.871 1009.49 258.041C1010.36 257.211 1010.79 256.049 1010.79 254.555V253.104L1008.36 253.207C1006.42 253.275 1005.03 253.578 1004.17 254.115C1003.32 254.643 1002.89 255.468 1002.89 256.591C1002.89 257.47 1003.16 258.139 1003.69 258.598C1004.22 259.057 1004.97 259.286 1005.93 259.286ZM1020.68 261H1018.25V238.207H1020.68V261ZM1023.29 244.945H1025.89L1029.41 254.101C1030.18 256.19 1030.66 257.699 1030.84 258.627H1030.96C1031.09 258.129 1031.35 257.279 1031.75 256.078C1032.16 254.867 1033.49 251.156 1035.74 244.945H1038.34L1031.44 263.227C1030.76 265.033 1029.96 266.312 1029.04 267.064C1028.13 267.826 1027.02 268.207 1025.69 268.207C1024.95 268.207 1024.21 268.124 1023.49 267.958V266.01C1024.03 266.127 1024.63 266.186 1025.29 266.186C1026.96 266.186 1028.15 265.248 1028.87 263.373L1029.76 261.088L1023.29 244.945ZM1051.31 256.62C1051.31 258.114 1050.75 259.267 1049.64 260.077C1048.52 260.888 1046.96 261.293 1044.95 261.293C1042.82 261.293 1041.16 260.956 1039.97 260.282V258.026C1040.74 258.417 1041.57 258.725 1042.45 258.949C1043.33 259.174 1044.19 259.286 1045.01 259.286C1046.28 259.286 1047.25 259.086 1047.94 258.686C1048.62 258.275 1048.96 257.655 1048.96 256.825C1048.96 256.2 1048.69 255.668 1048.14 255.229C1047.61 254.779 1046.55 254.252 1044.98 253.646C1043.49 253.09 1042.42 252.606 1041.79 252.196C1041.16 251.776 1040.69 251.303 1040.38 250.775C1040.08 250.248 1039.93 249.618 1039.93 248.886C1039.93 247.577 1040.46 246.547 1041.52 245.795C1042.59 245.033 1044.05 244.652 1045.9 244.652C1047.63 244.652 1049.32 245.004 1050.97 245.707L1050.11 247.685C1048.5 247.021 1047.04 246.688 1045.73 246.688C1044.57 246.688 1043.71 246.869 1043.12 247.23C1042.53 247.592 1042.24 248.09 1042.24 248.725C1042.24 249.154 1042.35 249.521 1042.56 249.823C1042.79 250.126 1043.14 250.414 1043.63 250.688C1044.12 250.961 1045.06 251.356 1046.44 251.874C1048.35 252.567 1049.63 253.266 1050.3 253.969C1050.97 254.672 1051.31 255.556 1051.31 256.62ZM1060.46 259.286C1060.89 259.286 1061.31 259.257 1061.71 259.198C1062.11 259.13 1062.43 259.062 1062.66 258.993V260.854C1062.4 260.98 1062.01 261.083 1061.49 261.161C1060.98 261.249 1060.52 261.293 1060.11 261.293C1057.01 261.293 1055.45 259.657 1055.45 256.386V246.835H1053.15V245.663L1055.45 244.652L1056.48 241.225H1057.88V244.945H1062.54V246.835H1057.88V256.283C1057.88 257.25 1058.11 257.992 1058.57 258.51C1059.03 259.027 1059.66 259.286 1060.46 259.286Z" fill="black"/>
<path d="M621.741 329.879C621.15 329.682 620.559 329.496 619.969 329.321C620.067 328.917 620.155 328.512 620.242 328.107C621.588 321.589 620.702 316.35 617.716 314.622C614.839 312.971 610.147 314.688 605.4 318.822C604.93 319.226 604.47 319.653 604.033 320.08C603.737 319.795 603.431 319.511 603.125 319.237C598.148 314.819 593.161 312.96 590.175 314.699C587.309 316.361 586.456 321.294 587.659 327.462C587.78 328.074 587.911 328.676 588.064 329.288C587.364 329.485 586.675 329.704 586.03 329.934C580.189 331.957 576 335.151 576 338.454C576 341.866 580.463 345.289 586.533 347.367C587.025 347.531 587.517 347.695 588.02 347.837C587.856 348.494 587.714 349.139 587.583 349.806C586.434 355.876 587.331 360.688 590.197 362.34C593.15 364.046 598.116 362.296 602.95 358.063C603.333 357.724 603.716 357.374 604.098 357.003C604.58 357.473 605.083 357.921 605.586 358.359C610.267 362.384 614.894 364.013 617.748 362.362C620.702 360.656 621.664 355.482 620.417 349.183C620.319 348.701 620.209 348.209 620.089 347.706C620.439 347.608 620.778 347.498 621.117 347.389C627.428 345.3 632 341.921 632 338.454C632 335.14 627.691 331.924 621.741 329.879ZM606.942 320.594C611.011 317.05 614.806 315.661 616.534 316.656C618.383 317.717 619.094 322.004 617.934 327.637C617.858 328.009 617.781 328.37 617.683 328.731C615.255 328.184 612.794 327.79 610.322 327.571C608.9 325.537 607.347 323.59 605.663 321.764C606.089 321.359 606.505 320.976 606.942 320.594ZM594.288 344.13C594.845 345.081 595.414 346.033 596.016 346.962C594.309 346.777 592.614 346.503 590.941 346.142C591.422 344.567 592.023 342.938 592.723 341.275C593.227 342.238 593.741 343.189 594.288 344.13ZM590.973 330.973C592.548 330.623 594.222 330.338 595.961 330.12C595.381 331.027 594.812 331.957 594.277 332.898C593.741 333.827 593.216 334.779 592.723 335.741C592.034 334.112 591.455 332.515 590.973 330.973ZM593.97 338.508C594.692 336.999 595.48 335.522 596.311 334.068C597.142 332.613 598.039 331.202 598.98 329.813C600.62 329.693 602.294 329.627 604 329.627C605.706 329.627 607.391 329.693 609.02 329.813C609.95 331.191 610.836 332.602 611.678 334.046C612.52 335.49 613.308 336.966 614.052 338.465C613.319 339.974 612.531 341.461 611.689 342.927C610.858 344.381 609.972 345.792 609.042 347.192C607.413 347.312 605.717 347.367 604 347.367C602.283 347.367 600.62 347.312 599.012 347.214C598.061 345.825 597.164 344.403 596.322 342.949C595.48 341.494 594.703 340.018 593.97 338.508ZM613.723 344.108C614.281 343.146 614.806 342.172 615.32 341.188C616.02 342.774 616.633 344.381 617.169 346.033C615.473 346.416 613.756 346.711 612.028 346.908C612.619 345.989 613.177 345.049 613.723 344.108ZM615.298 335.741C614.784 334.779 614.259 333.816 613.712 332.876C613.177 331.946 612.619 331.027 612.039 330.12C613.8 330.338 615.484 330.634 617.059 330.995C616.556 332.613 615.966 334.188 615.298 335.741ZM604.022 323.437C605.17 324.684 606.253 325.996 607.259 327.353C605.094 327.254 602.917 327.254 600.752 327.353C601.823 325.942 602.928 324.629 604.022 323.437ZM591.334 316.733C593.172 315.661 597.252 317.192 601.55 320.998C601.823 321.239 602.097 321.501 602.381 321.764C600.686 323.59 599.122 325.537 597.689 327.571C595.217 327.79 592.767 328.173 590.339 328.709C590.197 328.151 590.077 327.582 589.956 327.014C588.928 321.72 589.606 317.728 591.334 316.733ZM588.655 345.563C588.195 345.431 587.747 345.289 587.298 345.136C584.969 344.403 582.322 343.244 580.408 341.724C579.303 340.958 578.559 339.777 578.352 338.454C578.352 336.452 581.808 333.893 586.795 332.154C587.419 331.935 588.053 331.738 588.688 331.552C589.431 333.926 590.328 336.255 591.367 338.508C590.317 340.794 589.409 343.156 588.655 345.563ZM601.408 356.281C599.603 357.932 597.514 359.245 595.239 360.141C594.025 360.721 592.625 360.776 591.378 360.284C589.639 359.277 588.917 355.417 589.902 350.222C590.022 349.609 590.153 348.997 590.306 348.395C592.756 348.92 595.228 349.281 597.733 349.467C599.177 351.512 600.762 353.47 602.458 355.307C602.108 355.646 601.758 355.975 601.408 356.281ZM604.087 353.623C602.972 352.42 601.856 351.086 600.773 349.653C601.823 349.697 602.906 349.719 604 349.719C605.127 349.719 606.231 349.697 607.325 349.642C606.319 351.031 605.236 352.354 604.087 353.623ZM618.383 356.904C618.284 358.238 617.628 359.485 616.578 360.327C614.839 361.334 611.131 360.021 607.128 356.587C606.669 356.193 606.209 355.767 605.739 355.329C607.412 353.481 608.955 351.523 610.355 349.467C612.859 349.259 615.353 348.876 617.814 348.319C617.923 348.767 618.022 349.215 618.109 349.653C618.645 352.015 618.733 354.476 618.383 356.904ZM620.373 345.147C620.067 345.245 619.761 345.344 619.444 345.431C618.678 343.047 617.738 340.718 616.655 338.454C617.705 336.222 618.591 333.926 619.334 331.574C619.903 331.738 620.45 331.913 620.975 332.088C626.072 333.838 629.648 336.441 629.648 338.432C629.648 340.575 625.831 343.342 620.373 345.147ZM604 343.506C606.767 343.506 609.009 341.264 609.009 338.497C609.009 335.73 606.767 333.488 604 333.488C601.233 333.488 598.991 335.73 598.991 338.497C598.991 341.264 601.233 343.506 604 343.506Z" fill="url(#paint2_linear_0:3)"/>
<path d="M699 313L702.908 358.058L720.444 364L738.092 358.058L742 313H699ZM733.512 327.56H712.93L713.389 333.184H733.053L731.53 350.077L720.567 353.151V353.185H720.444L709.392 350.077L708.72 341.448H714.061L714.453 345.786L720.444 347.436L726.457 345.786L727.129 338.705H708.44L707.007 322.13H734.005L733.512 327.56Z" fill="url(#paint3_linear_0:3)"/>
<mask id="path-8-inside-1_0:3" fill="white">
<path d="M989.5 312C974.858 312 963 323.86 963 338.5C963 353.14 974.858 365 989.5 365C1004.13 365 1016 353.14 1016 338.5C1016 323.86 1004.13 312 989.492 312H989.5ZM989.5 313.164C996.26 313.164 1002.63 315.804 1007.41 320.583C1012.19 325.344 1014.85 331.789 1014.83 338.5C1014.83 345.262 1012.2 351.629 1007.41 356.417C1002.69 361.171 996.233 363.844 989.5 363.836C982.767 363.844 976.311 361.171 971.587 356.417C966.812 351.656 964.141 345.211 964.158 338.5C964.158 331.738 966.802 325.371 971.579 320.583C976.303 315.821 982.767 313.146 989.5 313.164ZM988.169 322.489C983.854 323.637 979.86 325.836 974.537 331.892C969.214 337.947 970.223 342.95 970.223 342.95C970.223 342.95 971.692 339.509 975.225 335.885C976.904 334.169 978.148 333.591 979.01 333.591C979.775 333.548 980.42 334.161 980.42 334.919V347.212C980.42 348.428 979.628 348.696 978.898 348.678C978.28 348.669 977.706 348.454 977.706 348.454C981.334 353.681 990.016 354.415 990.016 354.415L993.826 350.377L993.913 350.455L997.402 353.405C1003.79 349.643 1006.87 342.674 1006.87 342.674C1004.02 345.658 1002.2 346.357 1001.13 346.357C1000.17 346.349 999.794 345.796 999.794 345.796C999.743 345.537 999.656 341.793 999.621 338.049C999.586 334.176 999.621 330.295 999.813 330.285C1000.92 328.231 1004.43 324.091 1004.43 324.091C997.865 325.376 994.289 329.646 994.289 329.646C993.228 328.818 991.07 328.955 991.07 328.955C992.079 329.507 993.088 331.111 993.088 332.44V345.518C993.088 345.518 990.886 347.44 989.191 347.44C988.182 347.44 987.564 346.897 987.225 346.448C987.095 346.276 986.981 346.086 986.894 345.879V329.73C986.659 329.902 986.371 329.997 986.086 330.007C985.72 330.007 985.346 329.826 985.094 329.3C984.902 328.902 984.78 328.307 984.78 327.436C984.78 324.46 988.172 322.484 988.172 322.484L988.169 322.489Z"/>
</mask>
<path d="M989.5 312C974.858 312 963 323.86 963 338.5C963 353.14 974.858 365 989.5 365C1004.13 365 1016 353.14 1016 338.5C1016 323.86 1004.13 312 989.492 312H989.5ZM989.5 313.164C996.26 313.164 1002.63 315.804 1007.41 320.583C1012.19 325.344 1014.85 331.789 1014.83 338.5C1014.83 345.262 1012.2 351.629 1007.41 356.417C1002.69 361.171 996.233 363.844 989.5 363.836C982.767 363.844 976.311 361.171 971.587 356.417C966.812 351.656 964.141 345.211 964.158 338.5C964.158 331.738 966.802 325.371 971.579 320.583C976.303 315.821 982.767 313.146 989.5 313.164ZM988.169 322.489C983.854 323.637 979.86 325.836 974.537 331.892C969.214 337.947 970.223 342.95 970.223 342.95C970.223 342.95 971.692 339.509 975.225 335.885C976.904 334.169 978.148 333.591 979.01 333.591C979.775 333.548 980.42 334.161 980.42 334.919V347.212C980.42 348.428 979.628 348.696 978.898 348.678C978.28 348.669 977.706 348.454 977.706 348.454C981.334 353.681 990.016 354.415 990.016 354.415L993.826 350.377L993.913 350.455L997.402 353.405C1003.79 349.643 1006.87 342.674 1006.87 342.674C1004.02 345.658 1002.2 346.357 1001.13 346.357C1000.17 346.349 999.794 345.796 999.794 345.796C999.743 345.537 999.656 341.793 999.621 338.049C999.586 334.176 999.621 330.295 999.813 330.285C1000.92 328.231 1004.43 324.091 1004.43 324.091C997.865 325.376 994.289 329.646 994.289 329.646C993.228 328.818 991.07 328.955 991.07 328.955C992.079 329.507 993.088 331.111 993.088 332.44V345.518C993.088 345.518 990.886 347.44 989.191 347.44C988.182 347.44 987.564 346.897 987.225 346.448C987.095 346.276 986.981 346.086 986.894 345.879V329.73C986.659 329.902 986.371 329.997 986.086 330.007C985.72 330.007 985.346 329.826 985.094 329.3C984.902 328.902 984.78 328.307 984.78 327.436C984.78 324.46 988.172 322.484 988.172 322.484L988.169 322.489Z" fill="url(#paint4_linear_0:3)"/>
<path d="M989.5 313.164L989.386 355.164L989.443 355.164H989.5V313.164ZM1007.41 320.583L977.737 350.304L977.747 350.314L977.757 350.324L1007.41 320.583ZM1014.83 338.5L972.834 338.395L972.834 338.448V338.5H1014.83ZM1007.41 356.417L977.706 326.727L977.664 326.77L977.621 326.812L1007.41 356.417ZM989.5 363.836L989.552 321.836L989.5 321.836L989.448 321.836L989.5 363.836ZM971.587 356.417L1001.38 326.812L1001.31 326.744L1001.24 326.676L971.587 356.417ZM964.158 338.5L1006.16 338.605L1006.16 338.552V338.5H964.158ZM971.579 320.583L1001.31 350.247L1001.35 350.205L1001.4 350.162L971.579 320.583ZM988.169 322.489L998.966 363.077L1014.22 359.019L1023.03 345.919L988.169 322.489ZM970.223 342.95L929.051 351.252L955.765 483.736L1008.85 359.447L970.223 342.95ZM975.225 335.885L945.203 306.513L945.177 306.54L945.151 306.567L975.225 335.885ZM979.01 333.591V375.591H980.191L981.371 375.524L979.01 333.591ZM978.898 348.678L979.946 306.691L979.704 306.685L979.461 306.681L978.898 348.678ZM977.706 348.454L992.443 309.125L866.538 261.946L943.202 372.402L977.706 348.454ZM990.016 354.415L986.479 396.266L1006.66 397.971L1020.56 383.239L990.016 354.415ZM993.826 350.377L1021.86 319.1L991.372 291.779L963.278 321.553L993.826 350.377ZM993.913 350.455L965.882 381.732L966.334 382.137L966.798 382.529L993.913 350.455ZM997.402 353.405L970.288 385.479L993.044 404.716L1018.72 389.593L997.402 353.405ZM1006.87 342.674L1045.28 359.651L976.508 313.652L1006.87 342.674ZM1001.13 346.357L1000.76 388.356L1000.94 388.357H1001.13V346.357ZM999.794 345.796L958.613 354.049L960.273 362.33L965.005 369.326L999.794 345.796ZM999.621 338.049L957.622 338.43L957.622 338.443L999.621 338.049ZM999.813 330.285L1001.98 372.229L1025.61 371.007L1036.81 350.172L999.813 330.285ZM1004.43 324.091L1036.45 351.276L1114.1 259.834L996.367 282.872L1004.43 324.091ZM994.289 329.646L968.442 362.751L1000.43 387.725L1026.49 356.614L994.289 329.646ZM991.07 328.955L988.4 287.04L843.699 296.257L970.924 365.808L991.07 328.955ZM993.088 345.518L1020.72 377.15L1035.09 364.598V345.518H993.088ZM987.225 346.448L1020.74 321.132L1020.73 321.122L1020.72 321.112L987.225 346.448ZM986.894 345.879H944.894V354.332L948.165 362.127L986.894 345.879ZM986.894 329.73H1028.89V246.979L962.1 295.829L986.894 329.73ZM986.086 330.007V372.007H986.816L987.546 371.981L986.086 330.007ZM985.094 329.3L1022.97 311.159L1022.94 311.092L1022.91 311.025L985.094 329.3ZM988.172 322.484L1023.03 345.914L967.034 286.191L988.172 322.484ZM989.5 270C951.659 270 921 300.667 921 338.5H1005C1005 347.054 998.056 354 989.5 354V270ZM921 338.5C921 376.333 951.659 407 989.5 407V323C998.056 323 1005 329.946 1005 338.5H921ZM989.5 407C1027.32 407 1058 376.343 1058 338.5H974C974 329.936 980.944 323 989.5 323V407ZM1058 338.5C1058 300.65 1027.32 270 989.492 270V354C980.952 354 974 347.071 974 338.5H1058ZM989.492 354H989.5V270H989.492V354ZM989.5 355.164C985.106 355.164 980.808 353.37 977.737 350.304L1037.09 290.862C1024.45 278.239 1007.41 271.164 989.5 271.164V355.164ZM977.757 350.324C974.616 347.192 972.823 342.897 972.834 338.395L1056.83 338.605C1056.88 320.681 1049.76 303.497 1037.07 290.841L977.757 350.324ZM972.834 338.5C972.834 334.122 974.624 329.811 977.706 326.727L1037.12 386.107C1049.77 373.447 1056.83 356.403 1056.83 338.5H972.834ZM977.621 326.812C980.838 323.575 985.145 321.83 989.552 321.836L989.448 405.836C1007.32 405.858 1024.54 398.767 1037.2 386.023L977.621 326.812ZM989.448 321.836C993.855 321.83 998.162 323.575 1001.38 326.812L941.796 386.023C954.46 398.767 971.679 405.858 989.552 405.836L989.448 321.836ZM1001.24 326.676C1004.36 329.783 1006.17 334.067 1006.16 338.605L922.158 338.395C922.113 356.355 929.265 373.528 941.932 386.159L1001.24 326.676ZM1006.16 338.5C1006.16 342.909 1004.36 347.196 1001.31 350.247L941.846 290.918C929.248 303.545 922.158 320.566 922.158 338.5H1006.16ZM1001.4 350.162C998.167 353.417 993.834 355.176 989.386 355.164L989.614 271.164C971.699 271.116 954.438 278.225 941.762 291.003L1001.4 350.162ZM977.371 281.901C963.545 285.579 952.703 293.116 942.994 304.161L1006.08 359.623C1007.02 358.553 1006.58 359.274 1004.82 360.432C1003.92 361.028 1002.86 361.61 1001.7 362.115C1000.55 362.613 999.585 362.913 998.966 363.077L977.371 281.901ZM942.994 304.161C935.43 312.764 931.103 322.199 929.246 331.226C928.349 335.581 928.088 339.541 928.157 342.924C928.191 344.612 928.307 346.16 928.468 347.548C928.548 348.243 928.64 348.9 928.738 349.517C928.788 349.826 928.839 350.125 928.891 350.414C928.917 350.559 928.944 350.701 928.97 350.84C928.984 350.91 928.997 350.979 929.011 351.048C929.017 351.082 929.024 351.116 929.031 351.15C929.034 351.167 929.039 351.193 929.041 351.201C929.046 351.227 929.051 351.252 970.223 342.95C1011.39 334.649 1011.4 334.674 1011.4 334.699C1011.41 334.708 1011.41 334.733 1011.41 334.75C1011.42 334.784 1011.43 334.817 1011.43 334.851C1011.45 334.918 1011.46 334.986 1011.47 335.053C1011.5 335.188 1011.52 335.323 1011.55 335.458C1011.6 335.727 1011.64 335.998 1011.69 336.268C1011.77 336.809 1011.85 337.352 1011.91 337.899C1012.04 338.99 1012.12 340.099 1012.14 341.224C1012.19 343.48 1012 345.81 1011.52 348.158C1010.49 353.169 1008.32 357.074 1006.08 359.623L942.994 304.161ZM970.223 342.95C1008.85 359.447 1008.84 359.456 1008.84 359.465C1008.84 359.468 1008.83 359.477 1008.83 359.483C1008.83 359.495 1008.82 359.508 1008.82 359.52C1008.81 359.544 1008.8 359.568 1008.78 359.592C1008.76 359.64 1008.74 359.687 1008.72 359.734C1008.68 359.827 1008.64 359.919 1008.6 360.008C1008.52 360.186 1008.45 360.355 1008.37 360.517C1008.22 360.84 1008.08 361.135 1007.94 361.404C1007.67 361.938 1007.41 362.398 1007.16 362.805C1006.69 363.573 1006.1 364.382 1005.3 365.203L945.151 306.567C940.818 311.011 937.731 315.354 935.639 318.748C934.58 320.468 933.733 322.015 933.075 323.308C932.745 323.957 932.459 324.548 932.215 325.074C932.092 325.337 931.98 325.584 931.877 325.814C931.826 325.929 931.777 326.04 931.73 326.147C931.707 326.2 931.684 326.253 931.662 326.304C931.651 326.329 931.64 326.355 931.63 326.38C931.624 326.392 931.619 326.405 931.614 326.417C931.611 326.423 931.607 326.433 931.606 326.436C931.602 326.445 931.598 326.454 970.223 342.95ZM1005.25 365.256C1004.27 366.252 1001.97 368.444 998.251 370.567C994.595 372.655 987.937 375.591 979.01 375.591V291.591C960.587 291.591 948.935 302.699 945.203 306.513L1005.25 365.256ZM981.371 375.524C958.071 376.836 938.42 358.305 938.42 334.919H1022.42C1022.42 310.016 1001.48 290.26 976.65 291.657L981.371 375.524ZM938.42 334.919V347.212H1022.42V334.919H938.42ZM938.42 347.212C938.42 337.989 942.001 324.351 954.742 314.801C965.296 306.889 976.023 306.593 979.946 306.691L977.85 390.665C982.503 390.781 993.991 390.359 1005.12 382.014C1018.44 372.031 1022.42 357.651 1022.42 347.212H938.42ZM979.461 306.681C983.502 306.736 986.61 307.408 988.194 307.801C989.118 308.031 989.926 308.269 990.598 308.484C990.941 308.593 991.265 308.702 991.569 308.808C991.721 308.861 991.87 308.914 992.016 308.967C992.089 308.993 992.16 309.02 992.232 309.046C992.267 309.059 992.303 309.072 992.338 309.085C992.356 309.092 992.373 309.098 992.391 309.105C992.399 309.108 992.408 309.111 992.417 309.115C992.421 309.116 992.428 309.119 992.43 309.12C992.437 309.122 992.443 309.125 977.706 348.454C962.968 387.784 962.975 387.786 962.981 387.788C962.984 387.789 962.99 387.792 962.995 387.793C963.003 387.797 963.012 387.8 963.021 387.803C963.039 387.81 963.056 387.816 963.074 387.823C963.11 387.836 963.146 387.85 963.183 387.863C963.256 387.89 963.332 387.918 963.409 387.946C963.563 388.002 963.725 388.059 963.894 388.118C964.232 388.236 964.606 388.362 965.012 388.492C965.812 388.748 966.802 389.04 967.947 389.324C969.972 389.828 973.677 390.611 978.336 390.674L979.461 306.681ZM943.202 372.402C952.944 386.438 966.808 391.607 972.461 393.409C976.037 394.55 979.183 395.213 981.451 395.605C982.618 395.807 983.639 395.951 984.475 396.055C984.895 396.107 985.275 396.149 985.609 396.184C985.776 396.201 985.933 396.216 986.078 396.23C986.15 396.237 986.22 396.243 986.287 396.249C986.321 396.252 986.353 396.255 986.385 396.258C986.401 396.259 986.417 396.26 986.433 396.262C986.441 396.262 986.452 396.263 986.456 396.264C986.468 396.265 986.479 396.266 990.016 354.415C993.553 312.564 993.564 312.565 993.576 312.566C993.579 312.566 993.591 312.567 993.599 312.568C993.614 312.569 993.629 312.571 993.644 312.572C993.674 312.574 993.703 312.577 993.733 312.58C993.791 312.585 993.849 312.59 993.905 312.595C994.017 312.606 994.124 312.616 994.227 312.627C994.432 312.648 994.621 312.67 994.797 312.691C995.144 312.734 995.459 312.781 995.755 312.832C996.281 312.923 997.03 313.076 997.982 313.38C998.854 313.658 1000.68 314.307 1002.95 315.688C1005.22 317.064 1008.92 319.77 1012.21 324.506L943.202 372.402ZM1020.56 383.239L1024.37 379.201L963.278 321.553L959.468 325.591L1020.56 383.239ZM965.795 381.654L965.882 381.732L1021.94 319.177L1021.86 319.1L965.795 381.654ZM966.798 382.529L970.288 385.479L1024.52 321.33L1021.03 318.38L966.798 382.529ZM1018.72 389.593C1028.82 383.644 1035.26 375.907 1038.8 370.916C1040.69 368.242 1042.13 365.819 1043.16 363.937C1043.68 362.983 1044.11 362.133 1044.46 361.417C1044.64 361.058 1044.79 360.729 1044.93 360.435C1045 360.287 1045.06 360.148 1045.12 360.018C1045.15 359.952 1045.18 359.889 1045.21 359.828C1045.22 359.797 1045.23 359.767 1045.25 359.738C1045.25 359.723 1045.26 359.709 1045.26 359.694C1045.27 359.687 1045.27 359.676 1045.27 359.673C1045.28 359.662 1045.28 359.651 1006.87 342.674C968.453 325.696 968.457 325.686 968.462 325.675C968.463 325.672 968.468 325.661 968.471 325.654C968.477 325.64 968.484 325.626 968.49 325.612C968.502 325.584 968.514 325.557 968.527 325.53C968.551 325.475 968.575 325.422 968.598 325.37C968.645 325.266 968.691 325.166 968.735 325.071C968.824 324.88 968.908 324.705 968.986 324.544C969.143 324.224 969.286 323.948 969.417 323.706C969.667 323.248 969.937 322.803 970.264 322.341C970.665 321.776 972.371 319.404 976.086 317.216L1018.72 389.593ZM976.508 313.652C976.833 313.312 978.731 311.351 982.254 309.307C985.875 307.206 992.393 304.357 1001.13 304.357V388.357C1020.01 388.357 1032.29 376.86 1037.23 371.695L976.508 313.652ZM1001.49 304.359C1009.57 304.429 1017.02 306.954 1023.08 310.917C1025.94 312.789 1028.27 314.829 1030.13 316.759C1031.06 317.727 1031.89 318.683 1032.62 319.601C1032.99 320.06 1033.34 320.513 1033.66 320.957C1033.83 321.179 1033.98 321.4 1034.14 321.618C1034.21 321.727 1034.29 321.835 1034.36 321.943C1034.4 321.997 1034.44 322.051 1034.47 322.105C1034.49 322.131 1034.51 322.158 1034.53 322.185C1034.54 322.198 1034.55 322.219 1034.56 322.225C1034.57 322.245 1034.58 322.265 999.794 345.796C965.005 369.326 965.018 369.346 965.032 369.366C965.036 369.373 965.05 369.393 965.059 369.407C965.077 369.433 965.096 369.46 965.114 369.487C965.151 369.541 965.188 369.595 965.225 369.649C965.3 369.758 965.376 369.867 965.454 369.977C965.609 370.197 965.769 370.421 965.935 370.647C966.267 371.099 966.622 371.564 967.001 372.039C967.759 372.987 968.623 373.985 969.605 375.005C971.563 377.04 974.045 379.218 977.123 381.23C983.611 385.471 991.722 388.277 1000.76 388.356L1001.49 304.359ZM1040.98 337.543C1041.08 338.058 1041.16 338.504 1041.22 338.856C1041.28 339.213 1041.32 339.527 1041.36 339.786C1041.43 340.291 1041.49 340.712 1041.52 341.006C1041.55 341.31 1041.58 341.568 1041.6 341.764C1041.62 341.964 1041.63 342.136 1041.64 342.274C1041.67 342.542 1041.68 342.758 1041.69 342.895C1041.7 343.04 1041.71 343.156 1041.71 343.234C1041.72 343.385 1041.72 343.484 1041.72 343.506C1041.72 343.536 1041.72 343.536 1041.72 343.499C1041.72 343.423 1041.72 343.279 1041.71 343.057C1041.7 342.842 1041.7 342.58 1041.69 342.277C1041.68 341.67 1041.66 340.94 1041.65 340.141C1041.64 339.344 1041.63 338.498 1041.62 337.656L957.622 338.443C957.642 340.485 957.675 342.544 957.712 344.182C957.73 344.983 957.752 345.798 957.777 346.506C957.789 346.836 957.808 347.325 957.837 347.85C957.85 348.095 957.878 348.568 957.925 349.141C957.948 349.425 957.991 349.915 958.059 350.517C958.105 350.914 958.263 352.302 958.613 354.049L1040.98 337.543ZM1041.62 337.669C1041.6 335.896 1041.61 334.412 1041.62 333.537C1041.63 332.986 1041.64 333.23 1041.59 333.886C1041.59 334.004 1041.49 335.477 1041.17 337.427C1041.06 338.083 1040.58 341.014 1039.28 344.594C1038.71 346.172 1037.09 350.474 1033.64 355.174C1030.79 359.045 1020.68 371.262 1001.98 372.229L997.643 288.341C978.932 289.309 968.813 301.533 965.955 305.42C962.489 310.136 960.855 314.46 960.274 316.069C958.96 319.709 958.459 322.727 958.329 323.498C957.963 325.677 957.837 327.485 957.799 328.03C957.694 329.537 957.657 330.995 957.639 331.899C957.6 333.936 957.603 336.329 957.622 338.43L1041.62 337.669ZM1036.81 350.172C1036.2 351.3 1035.7 352.074 1035.52 352.355C1035.3 352.694 1035.16 352.889 1035.15 352.907C1035.13 352.927 1035.25 352.757 1035.54 352.398C1035.79 352.072 1036.06 351.751 1036.26 351.505C1036.35 351.388 1036.43 351.302 1036.46 351.258C1036.48 351.237 1036.49 351.226 1036.49 351.229C1036.49 351.23 1036.48 351.234 1036.48 351.242C1036.47 351.246 1036.47 351.251 1036.46 351.257C1036.46 351.259 1036.46 351.263 1036.46 351.266C1036.46 351.267 1036.45 351.269 1036.45 351.271C1036.45 351.272 1036.45 351.273 1036.45 351.274C1036.45 351.275 1036.45 351.276 1004.43 324.091C972.418 296.905 972.417 296.906 972.416 296.908C972.415 296.908 972.414 296.91 972.413 296.911C972.412 296.913 972.41 296.915 972.408 296.917C972.404 296.921 972.4 296.926 972.396 296.931C972.388 296.94 972.379 296.951 972.369 296.963C972.349 296.987 972.325 297.015 972.298 297.047C972.244 297.11 972.177 297.191 972.096 297.287C971.937 297.477 971.725 297.731 971.475 298.034C970.983 298.629 970.297 299.471 969.536 300.438C968.798 301.375 965.364 305.665 962.82 310.398L1036.81 350.172ZM996.367 282.872C985.848 284.931 977.817 289.356 972.445 293.202C969.731 295.146 967.541 297.051 965.864 298.66C965.019 299.471 964.285 300.226 963.661 300.899C963.349 301.236 963.062 301.554 962.801 301.851C962.67 302 962.545 302.143 962.427 302.281C962.368 302.35 962.31 302.417 962.254 302.483C962.226 302.517 962.199 302.549 962.171 302.582C962.158 302.598 962.144 302.614 962.131 302.63C962.124 302.638 962.114 302.65 962.111 302.654C962.101 302.666 962.091 302.678 994.289 329.646C1026.49 356.614 1026.48 356.625 1026.47 356.637C1026.46 356.641 1026.45 356.653 1026.45 356.661C1026.43 356.677 1026.42 356.692 1026.41 356.708C1026.38 356.74 1026.35 356.771 1026.33 356.802C1026.28 356.864 1026.22 356.925 1026.17 356.986C1026.07 357.108 1025.96 357.227 1025.86 357.344C1025.65 357.577 1025.45 357.803 1025.25 358.021C1024.85 358.455 1024.44 358.866 1024.04 359.257C1023.24 360.025 1022.35 360.782 1021.35 361.498C1019.41 362.888 1016.45 364.536 1012.5 365.309L996.367 282.872ZM1020.14 296.541C1009.71 288.4 998.612 287.419 996.58 287.21C994.475 286.994 992.691 286.947 991.434 286.946C990.777 286.946 990.192 286.959 989.693 286.977C989.442 286.985 989.208 286.996 988.994 287.006C988.886 287.012 988.783 287.017 988.684 287.023C988.634 287.026 988.586 287.029 988.539 287.031C988.515 287.033 988.492 287.034 988.469 287.036C988.457 287.036 988.446 287.037 988.434 287.038C988.428 287.038 988.42 287.039 988.417 287.039C988.409 287.039 988.4 287.04 991.07 328.955C993.74 370.87 993.732 370.871 993.723 370.871C993.72 370.871 993.712 370.872 993.706 370.872C993.695 370.873 993.684 370.874 993.672 370.874C993.65 370.876 993.627 370.877 993.605 370.878C993.559 370.881 993.514 370.884 993.469 370.886C993.378 370.892 993.287 370.897 993.196 370.901C993.013 370.91 992.827 370.918 992.637 370.925C992.26 370.938 991.852 370.947 991.414 370.946C990.594 370.946 989.416 370.917 987.983 370.769C986.651 370.632 984.325 370.318 981.467 369.476C978.846 368.703 973.774 366.913 968.442 362.751L1020.14 296.541ZM970.924 365.808C962.791 361.362 958.432 355.36 956.358 351.873C954.168 348.19 951.088 341.514 951.088 332.44H1035.09C1035.09 322.037 1031.5 313.895 1028.56 308.939C1025.73 304.18 1020.36 297.1 1011.22 292.102L970.924 365.808ZM951.088 332.44V345.518H1035.09V332.44H951.088ZM993.088 345.518C965.459 313.885 965.464 313.88 965.47 313.875C965.472 313.873 965.478 313.868 965.482 313.864C965.49 313.858 965.498 313.851 965.506 313.844C965.521 313.83 965.537 313.817 965.553 313.803C965.584 313.776 965.615 313.749 965.646 313.722C965.708 313.669 965.77 313.615 965.832 313.563C965.956 313.457 966.08 313.353 966.206 313.249C966.455 313.043 966.722 312.828 967.008 312.606C967.537 312.197 968.331 311.609 969.372 310.953C970.316 310.357 972.159 309.261 974.74 308.215C977.002 307.298 982.179 305.44 989.191 305.44V389.44C1002.92 389.44 1012.73 382.917 1014.18 382.005C1015.98 380.868 1017.43 379.8 1018.43 379.03C1018.95 378.628 1019.4 378.263 1019.77 377.952C1019.96 377.795 1020.14 377.649 1020.29 377.516C1020.37 377.449 1020.45 377.385 1020.52 377.324C1020.55 377.293 1020.59 377.264 1020.62 377.235C1020.64 377.22 1020.65 377.206 1020.67 377.192C1020.68 377.185 1020.69 377.178 1020.69 377.171C1020.7 377.167 1020.7 377.162 1020.71 377.16C1020.71 377.155 1020.72 377.15 993.088 345.518ZM989.191 305.44C1005.64 305.44 1016.14 315.05 1020.74 321.132L953.713 371.765C958.985 378.744 970.721 389.44 989.191 389.44V305.44ZM1020.72 321.112C1022.48 323.438 1024.21 326.271 1025.62 329.63L948.165 362.127C949.748 365.9 951.708 369.114 953.728 371.785L1020.72 321.112ZM1028.89 345.879V329.73H944.894V345.879H1028.89ZM962.1 295.829C968.969 290.806 976.894 288.301 984.625 288.032L987.546 371.981C995.849 371.692 1004.35 368.999 1011.69 363.631L962.1 295.829ZM986.086 288.007C993.012 288.007 1000.99 289.795 1008.43 294.632C1015.81 299.427 1020.37 305.718 1022.97 311.159L947.213 347.44C950.071 353.408 954.942 360.052 962.664 365.07C970.449 370.128 978.794 372.007 986.086 372.007V288.007ZM1022.91 311.025C1024.84 315.018 1025.76 318.609 1026.22 321.21C1026.68 323.831 1026.78 325.987 1026.78 327.436H942.78C942.78 331.484 943.228 339.194 947.278 347.574L1022.91 311.025ZM1026.78 327.436C1026.78 342.112 1018.72 350.948 1016.48 353.231C1014.88 354.867 1013.42 356.026 1012.38 356.784C1011.82 357.188 1011.29 357.548 1010.79 357.868C1010.54 358.03 1010.3 358.185 1010.05 358.336C1009.93 358.411 1009.8 358.485 1009.68 358.559C1009.62 358.595 1009.56 358.632 1009.5 358.668C1009.46 358.686 1009.43 358.705 1009.4 358.723C1009.39 358.732 1009.37 358.741 1009.36 358.75C1009.35 358.754 1009.34 358.761 1009.33 358.763C1009.32 358.77 1009.31 358.777 988.172 322.484C967.034 286.191 967.022 286.198 967.01 286.205C967.007 286.207 966.995 286.214 966.987 286.218C966.971 286.228 966.956 286.237 966.94 286.246C966.908 286.265 966.876 286.284 966.843 286.303C966.778 286.341 966.712 286.38 966.644 286.421C966.508 286.502 966.366 286.588 966.218 286.678C965.923 286.859 965.602 287.06 965.258 287.281C964.577 287.721 963.781 288.258 962.908 288.895C961.232 290.116 958.919 291.956 956.469 294.457C952.537 298.472 942.78 309.784 942.78 327.436H1026.78ZM953.315 299.054L953.312 299.059L1023.03 345.919L1023.03 345.914L953.315 299.054Z" fill="url(#paint5_linear_0:3)" mask="url(#path-8-inside-1_0:3)"/>
<path fill-rule="evenodd" clip-rule="evenodd" d="M1036 319.639C1036 314.863 1044.61 311 1055.25 311C1058.13 311 1060.85 311.277 1063.3 311.782L1054.9 319.631L1063.3 311.799C1063.49 311.831 1063.66 311.864 1063.85 311.913C1070.16 313.331 1074.49 316.248 1074.49 319.639C1074.49 321.774 1072.77 323.73 1069.91 325.246C1069.43 325.506 1068.93 325.735 1068.39 325.963C1065.73 327.071 1062.38 327.853 1058.67 328.147C1057.56 328.228 1056.42 328.277 1055.25 328.277C1052.15 328.277 1049.21 327.951 1046.62 327.365L1050.3 323.929L1046.61 327.365C1044.96 326.99 1043.45 326.517 1042.12 325.963C1041.58 325.735 1041.07 325.49 1040.6 325.246C1037.74 323.73 1036 321.774 1036 319.639Z" fill="url(#paint6_linear_0:3)"/>
<path fill-rule="evenodd" clip-rule="evenodd" d="M1040.62 325.246C1041.09 325.506 1041.6 325.735 1042.13 325.963C1043.46 326.517 1044.98 326.99 1046.61 327.348L1046.61 327.365C1049.2 327.951 1052.14 328.277 1055.24 328.277C1056.41 328.277 1057.54 328.228 1058.65 328.147C1062.38 327.853 1065.72 327.071 1068.37 325.963C1068.91 325.735 1069.42 325.49 1069.89 325.246C1072.74 323.744 1074.46 321.809 1074.47 319.697V330.836C1074.47 331.081 1074.46 331.325 1074.41 331.553C1074.02 333.721 1071.83 335.661 1068.55 337.079C1067.96 337.34 1067.33 337.568 1066.67 337.796C1063.47 338.856 1059.52 339.491 1055.24 339.491H1055.02C1052 339.475 1049.14 339.149 1046.61 338.578L1046.61 338.562C1045.63 338.35 1044.69 338.089 1043.81 337.796C1043.14 337.568 1042.53 337.34 1041.93 337.079C1038.62 335.661 1036.46 333.721 1036.06 331.553C1036.06 331.539 1036.06 331.525 1036.06 331.51C1036.03 331.282 1036 331.066 1036 330.836V319.639C1036 321.774 1037.74 323.73 1040.62 325.246ZM1074.47 319.639C1074.47 319.658 1074.47 319.677 1074.47 319.697V319.639Z" fill="url(#paint7_linear_0:3)"/>
<path fill-rule="evenodd" clip-rule="evenodd" d="M1041.94 338.243C1041.42 338.014 1040.92 337.786 1040.46 337.525C1037.69 336.026 1036.02 334.103 1036.02 332V343.035C1036.02 343.265 1036.04 343.48 1036.07 343.709L1036.08 343.752C1036.49 345.969 1038.73 347.941 1042.15 349.359C1043.48 349.913 1044.98 350.386 1046.62 350.761L1046.62 350.777C1048.03 351.087 1049.53 351.331 1051.11 351.494C1052.44 351.624 1053.83 351.69 1055.25 351.69C1056.28 351.69 1057.31 351.657 1058.29 351.575C1058.95 351.527 1059.6 351.461 1060.23 351.396C1062.68 351.103 1064.94 350.598 1066.9 349.929C1067.41 349.75 1067.9 349.571 1068.37 349.375C1068.48 349.326 1068.59 349.281 1068.7 349.237L1068.7 349.236C1068.8 349.192 1068.91 349.147 1069.02 349.098C1072.07 347.696 1074.06 345.838 1074.44 343.768C1074.47 343.605 1074.49 343.442 1074.51 343.279C1074.51 343.238 1074.51 343.202 1074.51 343.165C1074.52 343.128 1074.52 343.092 1074.52 343.051V332C1074.49 334.103 1072.83 336.026 1070.05 337.525C1069.56 337.784 1069.07 338.023 1068.56 338.243C1065.1 339.726 1060.42 340.639 1055.25 340.639H1054.57C1051.71 340.59 1049.02 340.264 1046.62 339.726V339.71C1044.9 339.335 1043.32 338.829 1041.94 338.243ZM1040.62 350.076C1037.74 348.576 1036 346.621 1036 344.469V355.683C1036 359.054 1040.31 361.986 1046.61 363.405V363.425L1046.61 363.425L1046.61 363.425C1046.81 363.474 1047.02 363.523 1047.24 363.555C1049.67 364.061 1052.39 364.338 1055.24 364.338C1058.35 364.338 1061.29 363.996 1063.9 363.409C1061.2 361.666 1059.27 358.896 1058.54 355.699C1058.35 354.835 1058.24 353.939 1058.22 353.026C1057.26 353.091 1056.26 353.124 1055.24 353.124C1053.66 353.124 1052.12 353.042 1050.65 352.879C1049.24 352.717 1047.9 352.506 1046.62 352.215V352.195C1044.31 351.673 1042.28 350.956 1040.62 350.076Z" fill="url(#paint8_linear_0:3)"/>
<path d="M1070.3 365.554C1076.97 365.554 1082.38 359.979 1082.38 353.101C1082.38 346.224 1076.97 340.648 1070.3 340.648C1063.63 340.648 1058.22 346.224 1058.22 353.101C1058.22 359.979 1063.63 365.554 1070.3 365.554Z" fill="#E5E9EC"/>
<path d="M1070.3 363.994C1075.82 363.994 1080.31 359.462 1080.47 353.806C1080.31 348.151 1075.82 343.619 1070.3 343.619C1064.78 343.619 1060.3 348.151 1060.14 353.806C1060.3 359.462 1064.78 363.994 1070.3 363.994Z" fill="url(#paint9_linear_0:3)"/>
<path d="M1066.89 352.205V358.089L1075.5 353.101L1066.89 348.13V352.205Z" fill="white"/>
<path fill-rule="evenodd" clip-rule="evenodd" d="M664.233 360.567C662.721 359.47 651.323 350.698 652.032 335.93C652.103 331.162 653.196 326.466 655.237 322.157C657.279 317.848 660.222 314.027 663.866 310.953C664.292 310.591 664.631 310.137 664.856 309.626C665.082 309.114 665.188 308.559 665.168 308C665.19 308.046 665.21 308.109 665.231 308.186L665.23 308.157C665.713 309.352 666.305 310.501 666.999 311.587C667.182 311.983 667.706 312.524 668.446 313.287C670.967 315.886 675.983 321.058 678.42 331.811C679.5 337.068 679.066 342.524 677.168 347.544C675.596 351.701 673.074 355.418 669.819 358.406L669.823 358.467C669.765 358.497 669.708 358.527 669.651 358.558C669.102 359.054 668.532 359.53 667.943 359.984C667.522 360.501 667.189 361.092 666.965 361.733C666.699 363.825 666.653 365.94 666.828 368.042L665.217 367.508C665.217 367.508 665.332 363.131 664.233 360.567Z" fill="url(#paint10_linear_0:3)"/>
<path d="M525.094 342.908C526.469 345.303 529.042 346.915 531.985 346.915C534.957 346.915 537.545 345.289 538.906 342.863L532.059 338.9L525.094 342.908Z" fill="#6A1577"/>
<path fill-rule="evenodd" clip-rule="evenodd" d="M555.409 325.459C555.408 325.459 555.408 325.459 555.408 325.459C555.024 324.778 554.447 324.217 553.678 323.773C550.484 321.932 547.286 320.091 544.088 318.249C540.891 316.409 537.693 314.568 534.499 312.727C532.769 311.736 531.113 311.766 529.397 312.771C528.072 313.55 523.973 315.907 519.816 318.299L519.816 318.299C515.999 320.494 512.134 322.718 510.322 323.773C508.754 324.675 508 326.065 508 327.869V350.109C508 350.986 508.188 351.762 508.549 352.436L508.532 352.446C508.917 353.141 509.508 353.732 510.292 354.191C511.766 355.045 514.582 356.664 517.627 358.414L517.629 358.416C522.436 361.179 527.811 364.269 529.368 365.193C529.513 365.277 529.657 365.356 529.802 365.427C531.376 366.213 532.919 366.178 534.499 365.252C538.461 362.959 542.429 360.677 546.395 358.397C548.824 357 551.252 355.604 553.678 354.205C554.477 353.747 555.054 353.17 555.438 352.461C555.807 351.781 555.999 350.999 556 350.113C556 350.107 556 350.101 556 350.095L556 327.854C556 326.952 555.808 326.139 555.409 325.459C555.409 325.459 555.409 325.459 555.409 325.459Z" fill="url(#paint11_linear_0:3)"/>
<path d="M538.906 342.863C537.545 345.274 534.957 346.915 531.985 346.915C529.028 346.915 526.455 345.303 525.094 342.908C524.429 341.74 524.044 340.409 524.044 338.974C524.044 334.583 527.593 331.034 531.985 331.034C534.913 331.034 537.471 332.631 538.846 334.997L545.782 331.004C543.017 326.242 537.87 323.034 531.97 323.034C523.157 323.034 516.029 330.176 516.029 338.974C516.029 341.858 516.798 344.579 518.144 346.915C520.895 351.692 526.07 354.915 531.985 354.915C537.915 354.915 543.09 351.677 545.841 346.871L538.906 342.863ZM547.675 335.204H546.092V342.849H547.675V335.204ZM551.179 335.204H549.597V342.849H551.179V335.204Z" fill="white"/>
<path d="M552.466 336.49H544.821V338.072H552.466V336.49ZM552.466 339.98H544.821V341.562H552.466V339.98Z" fill="white"/>
<path d="M817 333.451L810.982 312L788.517 317.748L785.189 323.35L778.442 323.302L762 339.002L778.444 354.705L785.188 354.657L788.52 360.252L810.982 366L817 344.556L813.581 339.002L817 333.451ZM785.733 324.252L802.917 320.034L793.053 336.353H773.321L785.733 324.252ZM785.733 353.755L773.321 341.655H793.053L802.917 357.973L785.733 353.755ZM807.729 355.322L797.859 339.002L807.727 322.681L812.492 339.002L807.729 355.322Z" fill="url(#paint12_linear_0:3)"/>
<path d="M889.387 371C889.039 371 888.692 370.901 888.377 370.735L885.197 368.844C884.717 368.579 884.948 368.479 885.114 368.43C885.743 368.214 885.876 368.164 886.555 367.766C886.621 367.733 886.721 367.75 886.787 367.783L889.238 369.242C889.321 369.292 889.453 369.292 889.536 369.242L899.109 363.704C899.192 363.654 899.258 363.555 899.258 363.438V352.378C899.258 352.262 899.209 352.163 899.109 352.113L889.536 346.591C889.453 346.541 889.338 346.541 889.238 346.591L879.665 352.113C879.566 352.163 879.516 352.279 879.516 352.378V363.438C879.516 363.538 879.582 363.637 879.665 363.687L882.282 365.196C883.706 365.909 884.584 365.064 884.584 364.234V353.307C884.584 353.158 884.7 353.025 884.866 353.025H886.075C886.224 353.025 886.356 353.141 886.356 353.307V364.234C886.356 366.141 885.329 367.219 883.524 367.219C882.978 367.219 882.53 367.219 881.321 366.622L878.804 365.18C878.191 364.815 877.793 364.152 877.793 363.438V352.378C877.793 351.665 878.174 350.985 878.804 350.637L888.377 345.099C888.99 344.75 889.785 344.75 890.381 345.099L899.954 350.637C900.567 351.002 900.964 351.665 900.964 352.378V363.438C900.964 364.152 900.583 364.831 899.954 365.18L890.381 370.718C890.099 370.901 889.752 371 889.387 371ZM897.122 360.089C897.122 358.016 895.731 357.469 892.783 357.071C889.801 356.673 889.503 356.474 889.503 355.778C889.503 355.197 889.752 354.434 891.954 354.434C893.925 354.434 894.654 354.865 894.952 356.192C894.985 356.325 895.085 356.408 895.217 356.408H896.459C896.542 356.408 896.608 356.374 896.658 356.325C896.708 356.258 896.741 356.192 896.724 356.109C896.526 353.821 895.018 352.76 891.954 352.76C889.222 352.76 887.598 353.92 887.598 355.844C887.598 357.95 889.222 358.514 891.838 358.779C894.969 359.094 895.217 359.542 895.217 360.155C895.217 361.233 894.356 361.681 892.335 361.681C889.801 361.681 889.238 361.051 889.056 359.79C889.039 359.658 888.923 359.558 888.774 359.558H887.532C887.383 359.558 887.251 359.674 887.251 359.84C887.251 361.449 888.128 363.372 892.319 363.372C895.383 363.372 897.122 362.178 897.122 360.089ZM906.148 351.781C906.148 352.793 905.32 353.622 904.31 353.622C903.3 353.622 902.472 352.793 902.472 351.781C902.472 350.736 903.333 349.941 904.31 349.941C905.304 349.924 906.148 350.736 906.148 351.781ZM905.85 351.781C905.85 350.919 905.155 350.239 904.293 350.239C903.449 350.239 902.753 350.919 902.753 351.781C902.753 352.643 903.449 353.34 904.293 353.34C905.155 353.323 905.85 352.627 905.85 351.781ZM905.105 352.809H904.674C904.658 352.71 904.592 352.179 904.592 352.163C904.558 352.046 904.525 351.98 904.376 351.98H904.012V352.809H903.614V350.736H904.327C904.575 350.736 905.055 350.736 905.055 351.284C905.055 351.665 904.807 351.748 904.658 351.798C904.939 351.814 904.956 351.997 905.006 352.262C905.022 352.428 905.055 352.71 905.105 352.809ZM904.641 351.35C904.641 351.068 904.443 351.068 904.343 351.068H904.012V351.649H904.327C904.592 351.649 904.641 351.466 904.641 351.35ZM859.74 327.72C859.74 327.273 859.508 326.875 859.128 326.659L848.975 320.806C848.809 320.706 848.61 320.656 848.412 320.64H848.312C848.113 320.64 847.931 320.706 847.749 320.806L837.613 326.659C837.232 326.875 837 327.289 837 327.72L837.017 343.473C837.017 343.689 837.132 343.888 837.315 344.004C837.497 344.12 837.729 344.12 837.928 344.004L843.956 340.538C844.337 340.306 844.569 339.908 844.569 339.477V332.115C844.569 331.683 844.801 331.269 845.182 331.053L847.749 329.578C847.948 329.461 848.147 329.412 848.362 329.412C848.577 329.412 848.793 329.461 848.975 329.578L851.542 331.053C851.923 331.269 852.155 331.683 852.155 332.115V339.477C852.155 339.908 852.387 340.323 852.767 340.538L858.796 344.004C858.978 344.12 859.227 344.12 859.409 344.004C859.591 343.905 859.707 343.689 859.707 343.473L859.74 327.72ZM915.258 310.525V339.776C915.258 340.207 915.026 340.621 914.645 340.837L904.492 346.707C904.111 346.923 903.648 346.923 903.267 346.707L893.114 340.837C892.733 340.621 892.501 340.207 892.501 339.776V328.035C892.501 327.604 892.733 327.19 893.114 326.974L903.267 321.104C903.648 320.888 904.111 320.888 904.492 321.104L907.026 322.563C907.308 322.729 907.672 322.514 907.672 322.198V306.611C907.672 306.147 908.169 305.848 908.583 306.081L914.628 309.463C915.009 309.662 915.258 310.077 915.258 310.525ZM907.639 331.899C907.639 331.783 907.573 331.683 907.49 331.634L904.012 329.611C903.913 329.561 903.797 329.561 903.697 329.611L900.219 331.634C900.12 331.683 900.07 331.783 900.07 331.899V335.929C900.07 336.045 900.136 336.144 900.219 336.194L903.697 338.2C903.797 338.25 903.913 338.25 903.995 338.2L907.473 336.194C907.573 336.144 907.623 336.045 907.623 335.929V331.899H907.639ZM942.387 331.783C942.768 331.567 943 331.153 943 330.722V327.886C943 327.455 942.768 327.04 942.387 326.825L932.301 320.955C931.92 320.739 931.456 320.739 931.075 320.955L920.922 326.825C920.541 327.04 920.309 327.455 920.309 327.886V339.626C920.309 340.074 920.541 340.472 920.922 340.688L931.009 346.442C931.373 346.657 931.837 346.657 932.218 346.442L938.313 343.042C938.727 342.81 938.727 342.213 938.313 341.981L928.094 336.111C927.895 335.995 927.779 335.796 927.779 335.58V331.899C927.779 331.683 927.895 331.485 928.094 331.368L931.274 329.528C931.456 329.412 931.704 329.412 931.887 329.528L935.067 331.368C935.249 331.485 935.381 331.683 935.381 331.899V334.784C935.381 335.249 935.895 335.547 936.309 335.315L942.387 331.783ZM929.584 332.363C929.518 332.413 929.468 332.479 929.468 332.562V334.818C929.468 334.9 929.518 334.983 929.584 335.017L931.539 336.144C931.605 336.194 931.704 336.194 931.771 336.144L933.725 335.017C933.791 334.967 933.841 334.9 933.841 334.818V332.562C933.841 332.479 933.791 332.397 933.725 332.363L931.771 331.236C931.704 331.186 931.605 331.186 931.539 331.236L929.584 332.363ZM887.482 339.577V327.903C887.482 327.472 887.218 327.057 886.837 326.841L876.717 321.005C876.369 320.806 875.889 320.772 875.491 321.005L865.372 326.841C864.991 327.057 864.726 327.455 864.726 327.903V339.577C864.726 340.041 865.04 340.439 865.388 340.638L875.524 346.475C875.922 346.707 876.386 346.69 876.75 346.475L886.853 340.638C887.151 340.472 887.367 340.19 887.449 339.859C887.466 339.776 887.482 339.676 887.482 339.577ZM875.177 318.865L875.044 318.948H875.226L875.177 318.865ZM887.797 340.456L887.731 340.339V340.489L887.797 340.456Z" fill="url(#paint13_linear_0:3)"/>
</g>
<defs>
<linearGradient id="paint0_linear_0:3" x1="1244.81" y1="544.562" x2="1497.04" y2="292.334" gradientUnits="userSpaceOnUse">
<stop stop-color="#B600FF"/>
<stop offset="1" stop-color="#0064E9"/>
</linearGradient>
<linearGradient id="paint1_linear_0:3" x1="107.77" y1="43.8246" x2="-62.6061" y2="269.041" gradientUnits="userSpaceOnUse">
<stop stop-color="#B600FF"/>
<stop offset="1" stop-color="#0064E9"/>
</linearGradient>
<linearGradient id="paint2_linear_0:3" x1="585.75" y1="357.604" x2="630.952" y2="327.114" gradientUnits="userSpaceOnUse">
<stop stop-color="#B600FF"/>
<stop offset="1" stop-color="#0064E9"/>
</linearGradient>
<linearGradient id="paint3_linear_0:3" x1="706.486" y1="358.384" x2="746.964" y2="338.241" gradientUnits="userSpaceOnUse">
<stop stop-color="#B600FF"/>
<stop offset="1" stop-color="#0064E9"/>
</linearGradient>
<linearGradient id="paint4_linear_0:3" x1="972.228" y1="359.164" x2="1018.39" y2="331.917" gradientUnits="userSpaceOnUse">
<stop stop-color="#B600FF"/>
<stop offset="1" stop-color="#0064E9"/>
</linearGradient>
<linearGradient id="paint5_linear_0:3" x1="972.228" y1="359.164" x2="1018.39" y2="331.917" gradientUnits="userSpaceOnUse">
<stop stop-color="#B600FF"/>
<stop offset="1" stop-color="#0064E9"/>
</linearGradient>
<linearGradient id="paint6_linear_0:3" x1="1042.7" y1="326.375" x2="1059.27" y2="304.594" gradientUnits="userSpaceOnUse">
<stop stop-color="#B600FF"/>
<stop offset="1" stop-color="#0064E9"/>
</linearGradient>
<linearGradient id="paint7_linear_0:3" x1="1042.7" y1="337.305" x2="1062.27" y2="314.915" gradientUnits="userSpaceOnUse">
<stop stop-color="#B600FF"/>
<stop offset="1" stop-color="#0064E9"/>
</linearGradient>
<linearGradient id="paint8_linear_0:3" x1="1042.71" y1="360.777" x2="1072.98" y2="339.49" gradientUnits="userSpaceOnUse">
<stop stop-color="#B600FF"/>
<stop offset="1" stop-color="#0064E9"/>
</linearGradient>
<linearGradient id="paint9_linear_0:3" x1="1063.68" y1="361.75" x2="1081.4" y2="351.311" gradientUnits="userSpaceOnUse">
<stop stop-color="#B600FF"/>
<stop offset="1" stop-color="#0064E9"/>
</linearGradient>
<linearGradient id="paint10_linear_0:3" x1="656.701" y1="361.43" x2="686.324" y2="353.568" gradientUnits="userSpaceOnUse">
<stop stop-color="#B600FF"/>
<stop offset="1" stop-color="#0064E9"/>
</linearGradient>
<linearGradient id="paint11_linear_0:3" x1="516.357" y1="360.04" x2="560.557" y2="336.843" gradientUnits="userSpaceOnUse">
<stop stop-color="#B600FF"/>
<stop offset="1" stop-color="#0064E9"/>
</linearGradient>
<linearGradient id="paint12_linear_0:3" x1="771.576" y1="360.054" x2="819.024" y2="331.53" gradientUnits="userSpaceOnUse">
<stop stop-color="#B600FF"/>
<stop offset="1" stop-color="#0064E9"/>
</linearGradient>
<linearGradient id="paint13_linear_0:3" x1="855.455" y1="363.843" x2="920.077" y2="301.642" gradientUnits="userSpaceOnUse">
<stop stop-color="#B600FF"/>
<stop offset="1" stop-color="#0064E9"/>
</linearGradient>
<clipPath id="clip0_0:3">
<rect width="1500" height="500" fill="white"/>
</clipPath>
<clipPath id="clip1_0:3">
<rect width="429.5" height="253.5" fill="white" transform="translate(1170 319)"/>
</clipPath>
<clipPath id="clip2_0:3">
<rect width="275.043" height="292.252" fill="white" transform="translate(256.704 262.313) rotate(156.158)"/>
</clipPath>
</defs>
</svg>
